<svg xmlns="http://www.w3.org/2000/svg" width="24" height="24" viewBox="0 0 24 24">
    <g fill="none" fill-rule="evenodd">
        <g>
            <g>
                <path d="M0 0H24V24H0z" transform="translate(-104.000000, -395.000000) translate(104.000000, 395.000000)"/>
                <path fill="#333" d="M12 16.32c2.386 0 4.32-1.934 4.32-4.32S14.386 7.68 12 7.68 7.68 9.614 7.68 12s1.934 4.32 4.32 4.32zM11.04 2.4h1.92v3.84h-1.92V2.4zm0 15.36h1.92v3.84h-1.92v-3.84zm6.72-4.8v-1.92h3.84v1.92h-3.84zm-15.36 0v-1.92h3.84v1.92H2.4zm2.133-7.07l1.358-1.357 2.715 2.715-1.358 1.358L4.533 5.89zm10.861 10.862l1.358-1.358 2.715 2.715-1.358 1.358-2.715-2.715zm1.358-8.146l-1.358-1.358 2.715-2.715 1.358 1.358-2.715 2.715zM5.89 19.467l-1.358-1.358 2.715-2.715 1.358 1.358-2.715 2.715z" transform="translate(-104.000000, -395.000000) translate(104.000000, 395.000000)"/>
            </g>
        </g>
    </g>
</svg>
