<svg xmlns="http://www.w3.org/2000/svg" width="24" height="24" viewBox="0 0 24 24">
    <g fill="none" fill-rule="evenodd">
        <g>
            <g>
                <path d="M0 0H24V24H0z" transform="translate(-104.000000, -155.000000) translate(104.000000, 155.000000)"/>
                <path fill="#333" d="M16.213 12c-.437-1.924-2.157-3.36-4.213-3.36S8.224 10.076 7.787 12H2.4v1.92h19.2V12h-5.387zM11.04 3.36h1.92V7.2h-1.92V3.36zm-4.8 13.92v-1.92h11.52v1.92H6.24zm1.44 3.394v-1.92h8.64v1.92H7.68zM4.533 6.851l1.358-1.358 2.715 2.715-1.358 1.358L4.533 6.85zm12.219 2.715l-1.358-1.358 2.715-2.715 1.358 1.358-2.715 2.715z" transform="translate(-104.000000, -155.000000) translate(104.000000, 155.000000)"/>
            </g>
        </g>
    </g>
</svg>
