<svg xmlns="http://www.w3.org/2000/svg" width="24" height="24" viewBox="0 0 24 24">
    <g fill="none" fill-rule="evenodd">
        <g>
            <g>
                <g>
                    <path d="M0 0H24V24H0z" transform="translate(-440.000000, -314.000000) translate(402.000000, 64.000000) translate(38.000000, 250.000000)"/>
                    <path fill="#20254D" d="M21.064 10.983c.037.334.056.673.056 1.017 0 5.037-4.083 9.12-9.12 9.12-5.037 0-9.12-4.083-9.12-9.12 0-5.037 4.083-9.12 9.12-9.12.344 0 .683.019 1.017.056C9.467 3.38 6.72 6.41 6.72 10.08c0 3.976 3.224 7.2 7.2 7.2 3.67 0 6.7-2.747 7.144-6.297z" transform="translate(-440.000000, -314.000000) translate(402.000000, 64.000000) translate(38.000000, 250.000000)"/>
                </g>
            </g>
        </g>
    </g>
</svg>
